<svg width="202" height="195" viewBox="0 0 202 195" fill="none" xmlns="http://www.w3.org/2000/svg">
<rect x="2.5" y="2.5" width="196.738" height="190" rx="27.5" fill="white" stroke="#F24545" stroke-width="5"/>
<path d="M118.719 51.6159C126.661 43.9392 139.537 43.9392 147.479 51.6159L149.147 53.2273C157.089 60.904 157.089 73.3513 149.147 81.0281L131.183 98.3904L149.147 115.754C157.089 123.43 157.089 135.877 149.147 143.553L147.479 145.166C139.537 152.842 126.661 152.842 118.719 145.166L100.756 127.802L82.7929 145.166C74.8509 152.842 61.9741 152.842 54.0321 145.166L52.3651 143.553C44.4231 135.877 44.4231 123.43 52.3651 115.754L70.328 98.3904L52.3651 81.0271C44.4231 73.3503 44.4231 60.904 52.3651 53.2273L54.0321 51.6159C61.9741 43.9392 74.8509 43.9392 82.7929 51.6159L100.756 68.9782L118.719 51.6159Z" fill="#F24545"/>
</svg>
