<svg width="202" height="195" viewBox="0 0 202 195" fill="none" xmlns="http://www.w3.org/2000/svg">
<rect x="2.5" y="2.5" width="196.738" height="190" rx="27.5" fill="white" stroke="#CCCCCC" stroke-width="5"/>
<path d="M118.719 51.6149C126.661 43.9387 139.537 43.9387 147.479 51.6149L149.147 53.2272C157.089 60.9039 157.089 73.3503 149.147 81.027L131.183 98.3893L149.147 115.754C157.089 123.43 157.089 135.877 149.147 143.553L147.48 145.165C139.538 152.841 126.661 152.841 118.719 145.165L100.755 127.801L82.7923 145.165C74.8503 152.841 61.9745 152.841 54.0325 145.165L52.3646 143.553C44.4226 135.877 44.4227 123.43 52.3646 115.754L70.3275 98.3893L52.3646 81.027C44.4229 73.3503 44.4229 60.9039 52.3646 53.2272L54.0325 51.6149C61.9745 43.9383 74.8513 43.9382 82.7933 51.6149L100.755 68.9772L118.719 51.6149Z" fill="#CCCCCC"/>
</svg>
